<?xml version="1.0" standalone="no"?>
<!DOCTYPE svg PUBLIC "-//W3C//DTD SVG 20010904//EN"
 "http://www.w3.org/TR/2001/REC-SVG-20010904/DTD/svg10.dtd">
<svg version="1.0" xmlns="http://www.w3.org/2000/svg"
 width="3579.000000pt" height="3579.000000pt" viewBox="0 0 3579.000000 3579.000000"
 preserveAspectRatio="xMidYMid meet">
<metadata>
Created by potrace 1.14, written by Peter Selinger 2001-2017
</metadata>
<g transform="translate(0.000000,3579.000000) scale(0.100000,-0.100000)"
fill="#000000" stroke="none">
<path d="M10600 25145 l0 -8235 -1799 0 c-1125 0 -1857 -4 -1953 -10 -1456
-98 -2762 -577 -3903 -1433 -422 -317 -867 -744 -1210 -1162 -937 -1141 -1483
-2537 -1576 -4025 -15 -238 -6 -839 15 -1050 81 -803 265 -1500 581 -2204 559
-1249 1497 -2329 2670 -3075 931 -592 1977 -963 3075 -1090 318 -36 488 -45
860 -45 526 0 914 36 1395 130 3126 611 5467 3144 5770 6244 31 320 35 561 35
2158 l0 1612 3958 -2 3957 -3 3 -5168 2 -5167 6563 2 6562 3 3 1978 2 1977
-4585 0 -4585 0 0 13400 0 13400 -1980 0 -1980 0 0 -8235 0 -8235 -3960 0
-3960 0 0 8235 0 8235 -1980 0 -1980 0 0 -8235z m-3 -13872 c-3 -1542 -5
-1698 -20 -1803 -104 -683 -390 -1252 -872 -1736 -385 -387 -860 -670 -1383
-824 -352 -104 -689 -148 -1061 -137 -420 12 -781 85 -1156 234 -916 364
-1601 1099 -1879 2017 -135 444 -157 975 -59 1456 165 817 679 1546 1408 1995
455 281 987 446 1530 474 83 4 903 9 1823 10 l1673 1 -4 -1687z"/>
<path d="M30845 17540 c-736 -66 -1408 -411 -1867 -960 -256 -305 -457 -713
-542 -1100 -76 -344 -76 -747 0 -1090 58 -261 187 -581 324 -800 140 -225 362
-478 568 -648 897 -738 2184 -826 3178 -217 480 294 870 753 1073 1263 308
772 220 1653 -233 2342 -202 307 -447 552 -760 761 -345 230 -742 379 -1161
434 -147 19 -445 27 -580 15z"/>
</g>
</svg>
